<svg width="36" height="44" viewBox="0 0 36 44" fill="none" xmlns="http://www.w3.org/2000/svg">
<g id="Group 39521">
<path id="Vector" d="M18 44C11.9625 38.9767 7.45313 34.3108 4.47188 30.0025C1.49063 25.6942 0 21.7067 0 18.04C0 12.54 1.80938 8.15833 5.42813 4.895C9.04688 1.63167 13.2375 0 18 0C22.7625 0 26.9531 1.63167 30.5719 4.895C34.1906 8.15833 36 12.54 36 18.04C36 21.7067 34.5094 25.6942 31.5281 30.0025C28.5469 34.3108 24.0375 38.9767 18 44Z" fill="#C87551"/>
<circle id="Ellipse 9" cx="18" cy="18.0001" r="10" fill="#FEFDFC"/>
<g id="layer1">
<path id="path1575" d="M20.0674 12.0002C20.0421 12.0006 20.0162 12.0018 19.9905 12.0039C18.9648 12.1878 18.4009 13.314 18.3192 14.3072C18.1998 15.2084 18.5822 16.3668 19.5351 16.5687C19.6733 16.596 19.8169 16.5835 19.952 16.5455C21.0994 16.1459 21.6129 14.7347 21.447 13.5658C21.3988 12.8108 20.8508 11.9898 20.0674 12.0002ZM15.7192 12.0485C15.0814 12.0648 14.5847 12.7365 14.4836 13.3679C14.2706 14.6188 14.8185 16.1731 16.0735 16.5687C16.191 16.5952 16.3126 16.598 16.4314 16.5789C17.2796 16.4321 17.6389 15.4445 17.6034 14.6473C17.5779 13.5956 17.0518 12.3795 16.0001 12.0838C15.904 12.0574 15.8103 12.0462 15.7192 12.0485ZM22.8463 15.6015C21.7431 15.67 20.9867 16.8132 20.8789 17.8806C20.7329 18.6505 21.1281 19.6802 21.974 19.7416C23.1535 19.7265 23.9581 18.4177 23.9915 17.2915C24.0662 16.5467 23.6437 15.6426 22.8463 15.6015ZM13.1899 15.8551C12.7205 15.8509 12.2589 16.1429 12.1055 16.6384C11.6963 17.9638 12.518 19.6424 13.8698 19.921C14.434 20.0212 14.9297 19.5713 15.0696 19.0299C15.3661 17.872 14.7572 16.5275 13.7267 16.0019C13.5588 15.9041 13.3735 15.8568 13.1899 15.8551ZM18.1358 18.2318C17.2156 18.2339 16.281 18.7188 15.6852 19.4406C15.0416 20.2819 14.5145 21.261 14.3082 22.3227C14.0577 23.087 14.6256 23.9666 15.4123 23.9719C16.3588 23.9992 17.1722 23.3243 18.1134 23.2741C18.9119 23.1477 19.6269 23.579 20.3448 23.8613C20.956 24.1328 21.8006 24.0288 22.1127 23.3457C22.3582 22.6494 21.9969 21.907 21.6975 21.2886C21.0871 20.285 20.4331 19.2301 19.4322 18.6035C19.031 18.3452 18.5851 18.2308 18.1358 18.2318Z" fill="#4F413F"/>
</g>
</g>
</svg>
